<svg id="Capa_1" enable-background="new 0 0 512 512" height="512" viewBox="0 0 512 512" width="512" xmlns="http://www.w3.org/2000/svg"><g><path d="m263.426 336.127h238.574v165.873h-238.574z" fill="#f9f6f5"/><path d="m240 64h208v192h-208z" fill="#f9f6f5"/><path d="m263.427 199.709v302.291h-224v-302.291l112-90.129z" fill="#f5d996"/><g fill="#abe0f6"><g><path d="m311.713 384h48v64h-48z"/><path d="m405.714 384h48v64h-48z"/></g><path d="m364 122.281h44v60h-44z"/><path d="m280 122.281h44v60h-44z"/><path d="m79.426 255.839h48v64h-48z"/><path d="m173.427 255.839h48v64h-48z"/></g><path d="m263.426 256.127h184.574l54 80h-237.61z" fill="#e67e95"/><g><path d="m328.521 64h-105.792l21.219-54h84.573 115.531l21.219 54z" fill="#e67e95"/></g><path id="XMLID_411_" d="m111.427 370h80v132h-80z" fill="#c5a09d"/><circle cx="151.427" cy="193.313" fill="#fff" r="21.984"/><path d="m163.9 68.361c-7.297-5.821-17.65-5.821-24.947 0l-128.953 102.886 28.463 28.463 112.964-90.129 112.964 90.129 28.463-28.463z" fill="#e67e95"/><g><path d="m151.427 161.329c-17.637 0-31.984 14.348-31.984 31.984s14.348 31.984 31.984 31.984 31.983-14.348 31.983-31.984-14.347-31.984-31.983-31.984zm0 43.968c-6.608 0-11.984-5.376-11.984-11.984s5.376-11.984 11.984-11.984c6.607 0 11.983 5.376 11.983 11.984s-5.376 11.984-11.983 11.984z"/><path d="m511.979 336.126c0-1.959-.554-3.911-1.691-5.595l-52.288-77.463v-179.068h7.271c3.308 0 6.4-1.635 8.264-4.369 1.862-2.733 2.253-6.21 1.044-9.289l-21.218-54c-1.505-3.825-5.197-6.342-9.308-6.342h-200.106c-4.111 0-7.804 2.517-9.308 6.343l-21.218 54c-1.209 3.079-.818 6.556 1.044 9.289 1.863 2.733 4.956 4.369 8.264 4.369h7.271v34.306l-59.863-47.762c-11.015-8.788-26.403-8.79-37.42 0l-128.953 102.885c-2.226 1.775-3.589 4.415-3.748 7.257s.9 5.618 2.913 7.631l26.498 26.498v101.039c0 5.523 4.478 10 10 10s10-4.477 10-10v-102.1l102-81.381 102 81.381v288.245h-52v-122c0-5.523-4.478-10-10-10h-80c-5.522 0-10 4.477-10 10v122h-52v-96.146c0-5.523-4.478-10-10-10s-10 4.477-10 10v106.146c0 5.523 4.478 10 10 10h462.573c5.522 0 10-4.477 10-10v-165.874zm-209.141-165.438c-.159-2.842-1.522-5.482-3.748-7.257l-9.09-7.252v-23.897h24v40h-11.214c.055-.528.082-1.059.052-1.594zm-29.411 95.438h169.259l40.5 60h-209.759zm-22.664-246.126h186.475l13.359 34h-213.194zm-.763 54h188v172h-164.573v-41.184l12.535-12.535h38.038c5.522 0 10-4.477 10-10v-60c0-5.523-4.478-10-10-10h-44c-5.522 0-10 4.477-10 10v17.94l-20-15.957zm-98.573 25.58c-2.206 0-4.412.728-6.236 2.183l-105.978 84.555-14.231-14.231 120.208-95.908c3.672-2.931 8.801-2.929 12.475 0l120.208 95.909-14.231 14.231-105.978-84.555c-1.825-1.456-4.031-2.184-6.237-2.184zm-30 392.42v-112h60v112zm152 0v-145.874h218.573v145.874z"/><path d="m69.426 255.839v64c0 5.523 4.478 10 10 10h48c5.522 0 10-4.477 10-10v-64c0-5.523-4.478-10-10-10h-48c-5.523 0-10 4.477-10 10zm20 10h28v44h-28z"/><path d="m163.427 255.839v64c0 5.523 4.478 10 10 10h48c5.522 0 10-4.477 10-10v-64c0-5.523-4.478-10-10-10h-48c-5.523 0-10 4.477-10 10zm20 10h28v44h-28z"/><path d="m359.713 374h-48c-5.522 0-10 4.477-10 10v64c0 5.523 4.478 10 10 10h48c5.522 0 10-4.477 10-10v-64c0-5.523-4.478-10-10-10zm-10 64h-28v-44h28z"/><path d="m453.714 374h-48c-5.522 0-10 4.477-10 10v64c0 5.523 4.478 10 10 10h48c5.522 0 10-4.477 10-10v-64c0-5.523-4.478-10-10-10zm-10 64h-28v-44h28z"/><path d="m364 192.281h44c5.522 0 10-4.477 10-10v-60c0-5.523-4.478-10-10-10h-44c-5.522 0-10 4.477-10 10v60c0 5.523 4.478 10 10 10zm10-60h24v40h-24z"/><circle cx="39.425" cy="350.857" r="10"/></g></g></svg>